<svg xmlns="http://www.w3.org/2000/svg" version="1.0" preserveAspectRatio="xMidYMid meet" viewBox="86 324.1 836.5 351.4">

<g transform="translate(0.000000,1000.000000) scale(0.100000,-0.100000)" fill="#000000" stroke="none">
<path fill="#005a87" d="M3300 6322 l-755 -437 -2 -885 -3 -885 756 -435 c415 -239 761 -435 768 -435 7 0 353 196 769 435 l756 435 -2 884 -2 885 -759 438 c-418 241 -762 438 -765 437 -3 0 -346 -197 -761 -437z m193 -319 c13 -15 153 -300 419 -851 56 -116 75 -132 159 -132 48 0 55 3 87 38 23 24 107 189 253 491 120 250 224 458 231 463 12 7 288 12 288 4 0 -2 -115 -244 -255 -537 -183 -384 -263 -542 -285 -561 l-30 -28 30 -27 c21 -20 97 -167 255 -497 124 -258 225 -475 225 -483 0 -12 -24 -14 -141 -11 -135 3 -142 4 -157 26 -8 13 -98 197 -199 410 -126 266 -193 396 -214 415 -26 24 -37 27 -94 27 -57 0 -68 -3 -94 -27 -20 -19 -81 -134 -184 -353 -231 -487 -226 -476 -253 -489 -28 -12 -270 -15 -278 -3 -2 4 99 221 225 482 172 357 237 482 260 502 l31 26 -31 29 c-23 20 -101 173 -286 557 -140 290 -255 532 -255 537 0 5 62 9 138 9 120 0 141 -2 155 -17z"/>
<path fill="#005a87" d="M1268 6010 c-156 -26 -289 -122 -357 -257 -50 -100 -51 -112 -51 -803 0 -548 2 -655 15 -705 41 -156 153 -278 311 -337 58 -22 69 -23 587 -26 l527 -3 0 109 c0 71 -4 112 -12 120 -9 9 -134 12 -500 12 -533 0 -530 0 -591 58 -16 15 -39 45 -50 67 -21 38 -22 52 -22 310 l0 270 524 3 c367 1 528 6 538 13 9 8 13 41 13 121 l0 109 -497 -3 c-496 -3 -498 -3 -536 -25 -21 -13 -40 -23 -43 -23 -3 0 -4 134 -2 298 3 282 4 299 25 337 24 46 54 75 103 101 32 18 72 19 540 24 l505 5 3 118 3 117 -493 -1 c-271 -1 -514 -5 -540 -9z"/>
<path fill="#005a87" d="M5940 5998 c-56 -29 -87 -74 -95 -141 -3 -29 -5 -484 -3 -1012 l3 -960 119 -3 c78 -2 123 1 132 9 12 9 14 97 14 517 0 462 1 504 16 484 37 -53 59 -57 340 -60 l260 -3 214 -452 c117 -249 222 -462 233 -474 19 -22 28 -23 149 -23 70 0 128 2 128 3 0 2 -99 212 -220 467 -121 255 -222 471 -225 480 -4 13 5 20 37 30 191 57 317 196 340 376 16 125 4 395 -21 475 -35 111 -107 196 -211 249 -103 53 -109 53 -655 57 l-510 4 -45 -23z m1032 -234 c56 -19 112 -73 133 -128 13 -35 16 -76 13 -227 l-3 -186 -30 -49 c-23 -37 -44 -56 -84 -76 l-55 -28 -400 0 c-358 0 -401 2 -418 17 -17 15 -18 39 -18 339 0 322 0 323 22 338 33 24 772 24 840 0z"/>
<path fill="#005a87" d="M7797 6006 c-21 -8 -47 -22 -59 -33 -50 -45 -48 -2 -48 -1083 l0 -1010 118 0 c78 0 122 4 130 12 9 9 12 133 12 497 l0 486 20 -33 c12 -19 38 -41 63 -52 39 -18 68 -20 392 -20 382 0 439 6 536 56 67 34 168 130 202 192 54 100 62 149 62 377 -1 173 -4 221 -19 270 -46 154 -156 269 -314 328 -55 20 -75 21 -557 24 -408 2 -507 0 -538 -11z m1010 -241 c62 -18 126 -84 143 -145 7 -26 10 -117 8 -249 l-3 -208 -30 -48 c-22 -36 -45 -57 -84 -77 l-53 -28 -399 0 c-386 0 -400 1 -419 20 -19 19 -20 33 -20 365 0 332 1 346 20 365 19 19 33 20 403 20 312 0 393 -3 434 -15z"/>
</g>
</svg>